<mxfile host="app.diagrams.net" modified="2024-07-03T18:28:36.075Z" agent="Mozilla/5.0 (Windows NT 10.0; Win64; x64; rv:127.0) Gecko/20100101 Firefox/127.0" etag="Zk-ksNvBF9ZDQCEounde" version="24.6.4" type="device">
  <diagram name="Сторінка-1" id="LO8CqRxmIHKpIdl-_7mI">
    <mxGraphModel dx="1697" dy="953" grid="1" gridSize="10" guides="1" tooltips="1" connect="1" arrows="1" fold="1" page="1" pageScale="1" pageWidth="827" pageHeight="1169" math="0" shadow="0">
      <root>
        <mxCell id="0" />
        <mxCell id="1" parent="0" />
        <mxCell id="dh5dRvbEl5mvJbLDPn4G-1" value="Field" style="swimlane;fontStyle=1;align=center;verticalAlign=top;childLayout=stackLayout;horizontal=1;startSize=26;horizontalStack=0;resizeParent=1;resizeParentMax=0;resizeLast=0;collapsible=1;marginBottom=0;whiteSpace=wrap;html=1;" parent="1" vertex="1">
          <mxGeometry x="255" y="1020" width="160" height="64" as="geometry">
            <mxRectangle x="190" y="954" width="70" height="30" as="alternateBounds" />
          </mxGeometry>
        </mxCell>
        <mxCell id="dh5dRvbEl5mvJbLDPn4G-2" value="" style="line;strokeWidth=1;fillColor=none;align=left;verticalAlign=middle;spacingTop=-1;spacingLeft=3;spacingRight=3;rotatable=0;labelPosition=right;points=[];portConstraint=eastwest;strokeColor=inherit;" parent="dh5dRvbEl5mvJbLDPn4G-1" vertex="1">
          <mxGeometry y="26" width="160" height="8" as="geometry" />
        </mxCell>
        <mxCell id="dh5dRvbEl5mvJbLDPn4G-3" value="&lt;div&gt;+value&lt;br&gt;&lt;/div&gt;" style="text;strokeColor=none;fillColor=none;align=left;verticalAlign=top;spacingLeft=4;spacingRight=4;overflow=hidden;rotatable=0;points=[[0,0.5],[1,0.5]];portConstraint=eastwest;whiteSpace=wrap;html=1;" parent="dh5dRvbEl5mvJbLDPn4G-1" vertex="1">
          <mxGeometry y="34" width="160" height="30" as="geometry" />
        </mxCell>
        <mxCell id="dh5dRvbEl5mvJbLDPn4G-4" value="Name" style="swimlane;fontStyle=1;align=center;verticalAlign=top;childLayout=stackLayout;horizontal=1;startSize=26;horizontalStack=0;resizeParent=1;resizeParentMax=0;resizeLast=0;collapsible=1;marginBottom=0;whiteSpace=wrap;html=1;" parent="1" vertex="1">
          <mxGeometry x="410" y="891" width="110" height="34" as="geometry">
            <mxRectangle x="360" y="949" width="70" height="30" as="alternateBounds" />
          </mxGeometry>
        </mxCell>
        <mxCell id="dh5dRvbEl5mvJbLDPn4G-5" value="" style="line;strokeWidth=1;fillColor=none;align=left;verticalAlign=middle;spacingTop=-1;spacingLeft=3;spacingRight=3;rotatable=0;labelPosition=right;points=[];portConstraint=eastwest;strokeColor=inherit;" parent="dh5dRvbEl5mvJbLDPn4G-4" vertex="1">
          <mxGeometry y="26" width="110" height="8" as="geometry" />
        </mxCell>
        <mxCell id="dh5dRvbEl5mvJbLDPn4G-6" value="Phone" style="swimlane;fontStyle=1;align=center;verticalAlign=top;childLayout=stackLayout;horizontal=1;startSize=26;horizontalStack=0;resizeParent=1;resizeParentMax=0;resizeLast=0;collapsible=1;marginBottom=0;whiteSpace=wrap;html=1;" parent="1" vertex="1">
          <mxGeometry x="100" y="880" width="170" height="70" as="geometry">
            <mxRectangle x="20" y="790" width="80" height="30" as="alternateBounds" />
          </mxGeometry>
        </mxCell>
        <mxCell id="dh5dRvbEl5mvJbLDPn4G-7" value="" style="line;strokeWidth=1;fillColor=none;align=left;verticalAlign=middle;spacingTop=-1;spacingLeft=3;spacingRight=3;rotatable=0;labelPosition=right;points=[];portConstraint=eastwest;strokeColor=inherit;" parent="dh5dRvbEl5mvJbLDPn4G-6" vertex="1">
          <mxGeometry y="26" width="170" height="8" as="geometry" />
        </mxCell>
        <mxCell id="dh5dRvbEl5mvJbLDPn4G-8" value="-validate_phone(int | float): bool" style="text;strokeColor=none;fillColor=none;align=left;verticalAlign=top;spacingLeft=4;spacingRight=4;overflow=hidden;rotatable=0;points=[[0,0.5],[1,0.5]];portConstraint=eastwest;whiteSpace=wrap;html=1;" parent="dh5dRvbEl5mvJbLDPn4G-6" vertex="1">
          <mxGeometry y="34" width="170" height="36" as="geometry" />
        </mxCell>
        <mxCell id="dh5dRvbEl5mvJbLDPn4G-9" value="Birthday" style="swimlane;fontStyle=1;align=center;verticalAlign=top;childLayout=stackLayout;horizontal=1;startSize=26;horizontalStack=0;resizeParent=1;resizeParentMax=0;resizeLast=0;collapsible=1;marginBottom=0;whiteSpace=wrap;html=1;" parent="1" vertex="1">
          <mxGeometry x="280" y="891" width="110" height="34" as="geometry">
            <mxRectangle x="190" y="951" width="80" height="30" as="alternateBounds" />
          </mxGeometry>
        </mxCell>
        <mxCell id="dh5dRvbEl5mvJbLDPn4G-10" value="" style="line;strokeWidth=1;fillColor=none;align=left;verticalAlign=middle;spacingTop=-1;spacingLeft=3;spacingRight=3;rotatable=0;labelPosition=right;points=[];portConstraint=eastwest;strokeColor=inherit;" parent="dh5dRvbEl5mvJbLDPn4G-9" vertex="1">
          <mxGeometry y="26" width="110" height="8" as="geometry" />
        </mxCell>
        <mxCell id="dh5dRvbEl5mvJbLDPn4G-11" value="" style="endArrow=block;dashed=1;endFill=0;endSize=12;html=1;rounded=0;exitX=0.5;exitY=1;exitDx=0;exitDy=0;entryX=0.75;entryY=0;entryDx=0;entryDy=0;" parent="1" source="dh5dRvbEl5mvJbLDPn4G-4" target="dh5dRvbEl5mvJbLDPn4G-1" edge="1">
          <mxGeometry width="160" relative="1" as="geometry">
            <mxPoint x="561.25" y="899.702" as="sourcePoint" />
            <mxPoint x="440" y="1029" as="targetPoint" />
          </mxGeometry>
        </mxCell>
        <mxCell id="dh5dRvbEl5mvJbLDPn4G-12" value="&lt;div&gt;AddressBook&lt;/div&gt;&lt;div&gt;&lt;br&gt;&lt;/div&gt;" style="swimlane;fontStyle=1;align=center;verticalAlign=top;childLayout=stackLayout;horizontal=1;startSize=26;horizontalStack=0;resizeParent=1;resizeParentMax=0;resizeLast=0;collapsible=1;marginBottom=0;whiteSpace=wrap;html=1;" parent="1" vertex="1">
          <mxGeometry x="68" y="400" width="170" height="210" as="geometry" />
        </mxCell>
        <mxCell id="dh5dRvbEl5mvJbLDPn4G-13" value="+data: dict&amp;lt;Record&amp;gt;" style="text;strokeColor=none;fillColor=none;align=left;verticalAlign=top;spacingLeft=4;spacingRight=4;overflow=hidden;rotatable=0;points=[[0,0.5],[1,0.5]];portConstraint=eastwest;whiteSpace=wrap;html=1;" parent="dh5dRvbEl5mvJbLDPn4G-12" vertex="1">
          <mxGeometry y="26" width="170" height="34" as="geometry" />
        </mxCell>
        <mxCell id="dh5dRvbEl5mvJbLDPn4G-14" value="" style="line;strokeWidth=1;fillColor=none;align=left;verticalAlign=middle;spacingTop=-1;spacingLeft=3;spacingRight=3;rotatable=0;labelPosition=right;points=[];portConstraint=eastwest;strokeColor=inherit;" parent="dh5dRvbEl5mvJbLDPn4G-12" vertex="1">
          <mxGeometry y="60" width="170" height="8" as="geometry" />
        </mxCell>
        <mxCell id="dh5dRvbEl5mvJbLDPn4G-15" value="&lt;div&gt;+add_record()&lt;/div&gt;&lt;div&gt;+find()&lt;/div&gt;&lt;div&gt;+delete()&lt;/div&gt;&lt;div&gt;+get_upcoming_birthdays()&lt;/div&gt;&lt;div&gt;+__str__(): str&lt;/div&gt;&lt;div&gt;#date_to_string(): str&lt;/div&gt;&lt;div&gt;#find_next_weekday():date&lt;/div&gt;&lt;div&gt;#adjust_for_weekend():date&lt;br&gt;&lt;/div&gt;" style="text;strokeColor=none;fillColor=none;align=left;verticalAlign=top;spacingLeft=4;spacingRight=4;overflow=hidden;rotatable=0;points=[[0,0.5],[1,0.5]];portConstraint=eastwest;whiteSpace=wrap;html=1;" parent="dh5dRvbEl5mvJbLDPn4G-12" vertex="1">
          <mxGeometry y="68" width="170" height="142" as="geometry" />
        </mxCell>
        <mxCell id="dh5dRvbEl5mvJbLDPn4G-16" value="" style="endArrow=none;html=1;rounded=0;exitX=0.531;exitY=-0.019;exitDx=0;exitDy=0;exitPerimeter=0;" parent="1" source="dh5dRvbEl5mvJbLDPn4G-6" edge="1">
          <mxGeometry width="50" height="50" relative="1" as="geometry">
            <mxPoint x="214" y="840" as="sourcePoint" />
            <mxPoint x="384" y="810" as="targetPoint" />
            <Array as="points">
              <mxPoint x="190" y="810" />
            </Array>
          </mxGeometry>
        </mxCell>
        <mxCell id="dh5dRvbEl5mvJbLDPn4G-17" value="" style="endArrow=none;html=1;rounded=0;entryX=0.534;entryY=0.015;entryDx=0;entryDy=0;entryPerimeter=0;" parent="1" target="dh5dRvbEl5mvJbLDPn4G-4" edge="1">
          <mxGeometry width="50" height="50" relative="1" as="geometry">
            <mxPoint x="384" y="810" as="sourcePoint" />
            <mxPoint x="554" y="865" as="targetPoint" />
            <Array as="points">
              <mxPoint x="469" y="810" />
            </Array>
          </mxGeometry>
        </mxCell>
        <mxCell id="dh5dRvbEl5mvJbLDPn4G-18" value="Record" style="swimlane;fontStyle=1;align=center;verticalAlign=top;childLayout=stackLayout;horizontal=1;startSize=26;horizontalStack=0;resizeParent=1;resizeParentMax=0;resizeLast=0;collapsible=1;marginBottom=0;whiteSpace=wrap;html=1;" parent="1" vertex="1">
          <mxGeometry x="254" y="600" width="160" height="180" as="geometry">
            <mxRectangle x="210" y="680" width="80" height="30" as="alternateBounds" />
          </mxGeometry>
        </mxCell>
        <mxCell id="dh5dRvbEl5mvJbLDPn4G-19" value="&lt;div&gt;+name: Name&lt;br&gt;&lt;/div&gt;&lt;div&gt;+phones: list&amp;lt;Phone&amp;gt;&lt;br&gt;&lt;/div&gt;&lt;div&gt;#birthday: Birthday&lt;br&gt;&lt;/div&gt;" style="text;strokeColor=none;fillColor=none;align=left;verticalAlign=top;spacingLeft=4;spacingRight=4;overflow=hidden;rotatable=0;points=[[0,0.5],[1,0.5]];portConstraint=eastwest;whiteSpace=wrap;html=1;" parent="dh5dRvbEl5mvJbLDPn4G-18" vertex="1">
          <mxGeometry y="26" width="160" height="54" as="geometry" />
        </mxCell>
        <mxCell id="dh5dRvbEl5mvJbLDPn4G-20" value="" style="line;strokeWidth=1;fillColor=none;align=left;verticalAlign=middle;spacingTop=-1;spacingLeft=3;spacingRight=3;rotatable=0;labelPosition=right;points=[];portConstraint=eastwest;strokeColor=inherit;" parent="dh5dRvbEl5mvJbLDPn4G-18" vertex="1">
          <mxGeometry y="80" width="160" height="8" as="geometry" />
        </mxCell>
        <mxCell id="dh5dRvbEl5mvJbLDPn4G-21" value="&lt;div&gt;+add_phone()&lt;/div&gt;&lt;div&gt;+remove_phone()&lt;/div&gt;&lt;div&gt;+edit_phone()&lt;/div&gt;&lt;div&gt;+find_phone()&lt;/div&gt;&lt;div&gt;+birthday&lt;br&gt;&lt;/div&gt;" style="text;strokeColor=none;fillColor=none;align=left;verticalAlign=top;spacingLeft=4;spacingRight=4;overflow=hidden;rotatable=0;points=[[0,0.5],[1,0.5]];portConstraint=eastwest;whiteSpace=wrap;html=1;" parent="dh5dRvbEl5mvJbLDPn4G-18" vertex="1">
          <mxGeometry y="88" width="160" height="92" as="geometry" />
        </mxCell>
        <mxCell id="dh5dRvbEl5mvJbLDPn4G-22" value="" style="endArrow=diamondThin;endFill=1;endSize=24;html=1;rounded=0;exitX=-0.025;exitY=0.359;exitDx=0;exitDy=0;exitPerimeter=0;entryX=0.5;entryY=1.015;entryDx=0;entryDy=0;entryPerimeter=0;" parent="1" source="dh5dRvbEl5mvJbLDPn4G-21" target="dh5dRvbEl5mvJbLDPn4G-15" edge="1">
          <mxGeometry width="160" relative="1" as="geometry">
            <mxPoint x="344" y="470" as="sourcePoint" />
            <mxPoint x="153" y="670" as="targetPoint" />
            <Array as="points">
              <mxPoint x="154" y="720" />
            </Array>
          </mxGeometry>
        </mxCell>
        <mxCell id="dh5dRvbEl5mvJbLDPn4G-23" value="Bot" style="swimlane;fontStyle=1;align=center;verticalAlign=top;childLayout=stackLayout;horizontal=1;startSize=26;horizontalStack=0;resizeParent=1;resizeParentMax=0;resizeLast=0;collapsible=1;marginBottom=0;whiteSpace=wrap;html=1;" parent="1" vertex="1">
          <mxGeometry x="304" y="230" width="170" height="330" as="geometry" />
        </mxCell>
        <mxCell id="dh5dRvbEl5mvJbLDPn4G-24" value="&lt;div&gt;-data: FileProcessor&lt;/div&gt;&lt;div&gt;-display: DisplayFactory&lt;br&gt;&lt;/div&gt;&lt;div&gt;+book: AddressBook&lt;/div&gt;&lt;div&gt;+messenger: Show&lt;br&gt;&lt;/div&gt;" style="text;strokeColor=none;fillColor=none;align=left;verticalAlign=top;spacingLeft=4;spacingRight=4;overflow=hidden;rotatable=0;points=[[0,0.5],[1,0.5]];portConstraint=eastwest;whiteSpace=wrap;html=1;" parent="dh5dRvbEl5mvJbLDPn4G-23" vertex="1">
          <mxGeometry y="26" width="170" height="74" as="geometry" />
        </mxCell>
        <mxCell id="dh5dRvbEl5mvJbLDPn4G-25" value="" style="line;strokeWidth=1;fillColor=none;align=left;verticalAlign=middle;spacingTop=-1;spacingLeft=3;spacingRight=3;rotatable=0;labelPosition=right;points=[];portConstraint=eastwest;strokeColor=inherit;" parent="dh5dRvbEl5mvJbLDPn4G-23" vertex="1">
          <mxGeometry y="100" width="170" height="8" as="geometry" />
        </mxCell>
        <mxCell id="dh5dRvbEl5mvJbLDPn4G-26" value="&lt;div&gt;#input_error()&lt;br&gt;&lt;/div&gt;&lt;div&gt;+add_contact()&lt;/div&gt;&lt;div&gt;+change_contact()&lt;/div&gt;&lt;div&gt;+show_phone()&lt;/div&gt;&lt;div&gt;+show_contact()&lt;/div&gt;&lt;div&gt;+show_all()&lt;/div&gt;&lt;div&gt;+add_birthday()&lt;/div&gt;&lt;div&gt;+show_birthday()&lt;/div&gt;&lt;div&gt;+birthdays()&lt;/div&gt;&lt;div&gt;+parse_input()&lt;/div&gt;&lt;div&gt;+greeting()&lt;/div&gt;&lt;div&gt;+show_commands()&lt;/div&gt;&lt;div&gt;+close()&lt;/div&gt;&lt;div&gt;+polling()&lt;br&gt;&lt;/div&gt;" style="text;strokeColor=none;fillColor=none;align=left;verticalAlign=top;spacingLeft=4;spacingRight=4;overflow=hidden;rotatable=0;points=[[0,0.5],[1,0.5]];portConstraint=eastwest;whiteSpace=wrap;html=1;" parent="dh5dRvbEl5mvJbLDPn4G-23" vertex="1">
          <mxGeometry y="108" width="170" height="222" as="geometry" />
        </mxCell>
        <mxCell id="dh5dRvbEl5mvJbLDPn4G-27" value="1" style="endArrow=open;html=1;endSize=12;startArrow=diamondThin;startSize=14;startFill=1;edgeStyle=orthogonalEdgeStyle;align=left;verticalAlign=bottom;rounded=0;entryX=0.49;entryY=0.004;entryDx=0;entryDy=0;exitX=0.5;exitY=0.995;exitDx=0;exitDy=0;exitPerimeter=0;entryPerimeter=0;" parent="1" source="dh5dRvbEl5mvJbLDPn4G-21" target="dh5dRvbEl5mvJbLDPn4G-9" edge="1">
          <mxGeometry x="-1" y="3" relative="1" as="geometry">
            <mxPoint x="319" y="780" as="sourcePoint" />
            <mxPoint x="214" y="790" as="targetPoint" />
          </mxGeometry>
        </mxCell>
        <mxCell id="dh5dRvbEl5mvJbLDPn4G-28" value="" style="endArrow=diamondThin;endFill=1;endSize=24;html=1;rounded=0;exitX=1.012;exitY=0.913;exitDx=0;exitDy=0;exitPerimeter=0;entryX=0;entryY=0.536;entryDx=0;entryDy=0;entryPerimeter=0;" parent="1" source="dh5dRvbEl5mvJbLDPn4G-13" target="dh5dRvbEl5mvJbLDPn4G-26" edge="1">
          <mxGeometry width="160" relative="1" as="geometry">
            <mxPoint x="328" y="450" as="sourcePoint" />
            <mxPoint x="284" y="450" as="targetPoint" />
            <Array as="points" />
          </mxGeometry>
        </mxCell>
        <mxCell id="dh5dRvbEl5mvJbLDPn4G-29" value="" style="endArrow=block;endSize=16;endFill=0;html=1;rounded=0;exitX=0.524;exitY=1.039;exitDx=0;exitDy=0;exitPerimeter=0;entryX=0.25;entryY=0;entryDx=0;entryDy=0;" parent="1" source="dh5dRvbEl5mvJbLDPn4G-8" target="dh5dRvbEl5mvJbLDPn4G-1" edge="1">
          <mxGeometry width="160" relative="1" as="geometry">
            <mxPoint x="80" y="1080" as="sourcePoint" />
            <mxPoint x="240" y="1080" as="targetPoint" />
          </mxGeometry>
        </mxCell>
        <mxCell id="dh5dRvbEl5mvJbLDPn4G-30" value="" style="endArrow=block;endSize=16;endFill=0;html=1;rounded=0;exitX=0.5;exitY=1;exitDx=0;exitDy=0;entryX=0.5;entryY=0;entryDx=0;entryDy=0;" parent="1" source="dh5dRvbEl5mvJbLDPn4G-9" target="dh5dRvbEl5mvJbLDPn4G-1" edge="1">
          <mxGeometry width="160" relative="1" as="geometry">
            <mxPoint x="80" y="1060" as="sourcePoint" />
            <mxPoint x="240" y="1060" as="targetPoint" />
          </mxGeometry>
        </mxCell>
        <mxCell id="dh5dRvbEl5mvJbLDPn4G-31" value="FileProcessor" style="swimlane;fontStyle=1;align=center;verticalAlign=top;childLayout=stackLayout;horizontal=1;startSize=26;horizontalStack=0;resizeParent=1;resizeParentMax=0;resizeLast=0;collapsible=1;marginBottom=0;whiteSpace=wrap;html=1;" parent="1" vertex="1">
          <mxGeometry x="60" y="230" width="186" height="110" as="geometry" />
        </mxCell>
        <mxCell id="dh5dRvbEl5mvJbLDPn4G-32" value="+ filename: str" style="text;strokeColor=none;fillColor=none;align=left;verticalAlign=top;spacingLeft=4;spacingRight=4;overflow=hidden;rotatable=0;points=[[0,0.5],[1,0.5]];portConstraint=eastwest;whiteSpace=wrap;html=1;" parent="dh5dRvbEl5mvJbLDPn4G-31" vertex="1">
          <mxGeometry y="26" width="186" height="26" as="geometry" />
        </mxCell>
        <mxCell id="dh5dRvbEl5mvJbLDPn4G-33" value="" style="line;strokeWidth=1;fillColor=none;align=left;verticalAlign=middle;spacingTop=-1;spacingLeft=3;spacingRight=3;rotatable=0;labelPosition=right;points=[];portConstraint=eastwest;strokeColor=inherit;" parent="dh5dRvbEl5mvJbLDPn4G-31" vertex="1">
          <mxGeometry y="52" width="186" height="8" as="geometry" />
        </mxCell>
        <mxCell id="dh5dRvbEl5mvJbLDPn4G-34" value="&lt;div&gt;+save_data(): None&lt;/div&gt;&lt;div&gt;+load_data(): AddressBook&lt;br&gt;&lt;/div&gt;" style="text;strokeColor=none;fillColor=none;align=left;verticalAlign=top;spacingLeft=4;spacingRight=4;overflow=hidden;rotatable=0;points=[[0,0.5],[1,0.5]];portConstraint=eastwest;whiteSpace=wrap;html=1;" parent="dh5dRvbEl5mvJbLDPn4G-31" vertex="1">
          <mxGeometry y="60" width="186" height="50" as="geometry" />
        </mxCell>
        <mxCell id="dh5dRvbEl5mvJbLDPn4G-35" value="" style="endArrow=diamondThin;endFill=1;endSize=24;html=1;rounded=0;entryX=0.004;entryY=0.405;entryDx=0;entryDy=0;entryPerimeter=0;exitX=1;exitY=0.5;exitDx=0;exitDy=0;" parent="1" source="dh5dRvbEl5mvJbLDPn4G-31" target="dh5dRvbEl5mvJbLDPn4G-24" edge="1">
          <mxGeometry width="160" relative="1" as="geometry">
            <mxPoint x="246" y="150" as="sourcePoint" />
            <mxPoint x="454" y="150" as="targetPoint" />
            <Array as="points" />
          </mxGeometry>
        </mxCell>
        <mxCell id="dh5dRvbEl5mvJbLDPn4G-36" value="Use" style="endArrow=open;endSize=12;dashed=1;html=1;rounded=0;exitX=0.5;exitY=1.04;exitDx=0;exitDy=0;exitPerimeter=0;entryX=0.5;entryY=0;entryDx=0;entryDy=0;" parent="1" source="dh5dRvbEl5mvJbLDPn4G-34" target="dh5dRvbEl5mvJbLDPn4G-12" edge="1">
          <mxGeometry width="160" relative="1" as="geometry">
            <mxPoint x="104" y="330" as="sourcePoint" />
            <mxPoint x="264" y="330" as="targetPoint" />
          </mxGeometry>
        </mxCell>
        <mxCell id="dh5dRvbEl5mvJbLDPn4G-40" value="" style="endArrow=open;endFill=1;endSize=12;html=1;rounded=0;exitX=0.5;exitY=1;exitDx=0;exitDy=0;entryX=0.5;entryY=0;entryDx=0;entryDy=0;" parent="1" source="dh5dRvbEl5mvJbLDPn4G-41" edge="1">
          <mxGeometry width="160" relative="1" as="geometry">
            <mxPoint x="470" y="351" as="sourcePoint" />
            <mxPoint x="640.0000000000002" y="350.0000000000001" as="targetPoint" />
          </mxGeometry>
        </mxCell>
        <mxCell id="dh5dRvbEl5mvJbLDPn4G-41" value="DisplayFactory" style="swimlane;fontStyle=1;align=center;verticalAlign=top;childLayout=stackLayout;horizontal=1;startSize=26;horizontalStack=0;resizeParent=1;resizeParentMax=0;resizeLast=0;collapsible=1;marginBottom=0;whiteSpace=wrap;html=1;" parent="1" vertex="1">
          <mxGeometry x="560" y="230" width="160" height="86" as="geometry" />
        </mxCell>
        <mxCell id="dh5dRvbEl5mvJbLDPn4G-42" value="+displays: dict&amp;lt;Show&amp;gt;" style="text;strokeColor=none;fillColor=none;align=left;verticalAlign=top;spacingLeft=4;spacingRight=4;overflow=hidden;rotatable=0;points=[[0,0.5],[1,0.5]];portConstraint=eastwest;whiteSpace=wrap;html=1;" parent="dh5dRvbEl5mvJbLDPn4G-41" vertex="1">
          <mxGeometry y="26" width="160" height="26" as="geometry" />
        </mxCell>
        <mxCell id="dh5dRvbEl5mvJbLDPn4G-43" value="" style="line;strokeWidth=1;fillColor=none;align=left;verticalAlign=middle;spacingTop=-1;spacingLeft=3;spacingRight=3;rotatable=0;labelPosition=right;points=[];portConstraint=eastwest;strokeColor=inherit;" parent="dh5dRvbEl5mvJbLDPn4G-41" vertex="1">
          <mxGeometry y="52" width="160" height="8" as="geometry" />
        </mxCell>
        <mxCell id="dh5dRvbEl5mvJbLDPn4G-44" value="+get_display: Show" style="text;strokeColor=none;fillColor=none;align=left;verticalAlign=top;spacingLeft=4;spacingRight=4;overflow=hidden;rotatable=0;points=[[0,0.5],[1,0.5]];portConstraint=eastwest;whiteSpace=wrap;html=1;" parent="dh5dRvbEl5mvJbLDPn4G-41" vertex="1">
          <mxGeometry y="60" width="160" height="26" as="geometry" />
        </mxCell>
        <mxCell id="VLVDaIbxHgHDTLNOF5i8-2" value="&lt;i&gt;Show&lt;/i&gt;" style="swimlane;fontStyle=1;align=center;verticalAlign=top;childLayout=stackLayout;horizontal=1;startSize=26;horizontalStack=0;resizeParent=1;resizeParentMax=0;resizeLast=0;collapsible=1;marginBottom=0;whiteSpace=wrap;html=1;" vertex="1" parent="1">
          <mxGeometry x="560" y="350" width="160" height="60" as="geometry" />
        </mxCell>
        <mxCell id="VLVDaIbxHgHDTLNOF5i8-5" value="+show()" style="text;strokeColor=none;fillColor=none;align=left;verticalAlign=top;spacingLeft=4;spacingRight=4;overflow=hidden;rotatable=0;points=[[0,0.5],[1,0.5]];portConstraint=eastwest;whiteSpace=wrap;html=1;" vertex="1" parent="VLVDaIbxHgHDTLNOF5i8-2">
          <mxGeometry y="26" width="160" height="26" as="geometry" />
        </mxCell>
        <mxCell id="VLVDaIbxHgHDTLNOF5i8-4" value="" style="line;strokeWidth=1;fillColor=none;align=left;verticalAlign=middle;spacingTop=-1;spacingLeft=3;spacingRight=3;rotatable=0;labelPosition=right;points=[];portConstraint=eastwest;strokeColor=inherit;" vertex="1" parent="VLVDaIbxHgHDTLNOF5i8-2">
          <mxGeometry y="52" width="160" height="8" as="geometry" />
        </mxCell>
        <mxCell id="VLVDaIbxHgHDTLNOF5i8-6" value="Use" style="endArrow=open;endSize=12;dashed=1;html=1;rounded=0;exitX=1;exitY=0.5;exitDx=0;exitDy=0;entryX=-0.017;entryY=0.103;entryDx=0;entryDy=0;entryPerimeter=0;" edge="1" parent="1" source="dh5dRvbEl5mvJbLDPn4G-24" target="dh5dRvbEl5mvJbLDPn4G-44">
          <mxGeometry width="160" relative="1" as="geometry">
            <mxPoint x="554" y="270" as="sourcePoint" />
            <mxPoint x="554" y="334" as="targetPoint" />
          </mxGeometry>
        </mxCell>
        <mxCell id="VLVDaIbxHgHDTLNOF5i8-8" value="BookShow" style="swimlane;fontStyle=1;align=center;verticalAlign=top;childLayout=stackLayout;horizontal=1;startSize=26;horizontalStack=0;resizeParent=1;resizeParentMax=0;resizeLast=0;collapsible=1;marginBottom=0;whiteSpace=wrap;html=1;" vertex="1" parent="1">
          <mxGeometry x="650" y="450" width="126" height="34" as="geometry" />
        </mxCell>
        <mxCell id="VLVDaIbxHgHDTLNOF5i8-10" value="" style="line;strokeWidth=1;fillColor=none;align=left;verticalAlign=middle;spacingTop=-1;spacingLeft=3;spacingRight=3;rotatable=0;labelPosition=right;points=[];portConstraint=eastwest;strokeColor=inherit;" vertex="1" parent="VLVDaIbxHgHDTLNOF5i8-8">
          <mxGeometry y="26" width="126" height="8" as="geometry" />
        </mxCell>
        <mxCell id="VLVDaIbxHgHDTLNOF5i8-20" value="PhoneShow" style="swimlane;fontStyle=1;align=center;verticalAlign=top;childLayout=stackLayout;horizontal=1;startSize=26;horizontalStack=0;resizeParent=1;resizeParentMax=0;resizeLast=0;collapsible=1;marginBottom=0;whiteSpace=wrap;html=1;" vertex="1" parent="1">
          <mxGeometry x="650" y="500" width="126" height="34" as="geometry" />
        </mxCell>
        <mxCell id="VLVDaIbxHgHDTLNOF5i8-22" value="" style="line;strokeWidth=1;fillColor=none;align=left;verticalAlign=middle;spacingTop=-1;spacingLeft=3;spacingRight=3;rotatable=0;labelPosition=right;points=[];portConstraint=eastwest;strokeColor=inherit;" vertex="1" parent="VLVDaIbxHgHDTLNOF5i8-20">
          <mxGeometry y="26" width="126" height="8" as="geometry" />
        </mxCell>
        <mxCell id="VLVDaIbxHgHDTLNOF5i8-24" value="RecordShow" style="swimlane;fontStyle=1;align=center;verticalAlign=top;childLayout=stackLayout;horizontal=1;startSize=26;horizontalStack=0;resizeParent=1;resizeParentMax=0;resizeLast=0;collapsible=1;marginBottom=0;whiteSpace=wrap;html=1;" vertex="1" parent="1">
          <mxGeometry x="650" y="551" width="126" height="34" as="geometry" />
        </mxCell>
        <mxCell id="VLVDaIbxHgHDTLNOF5i8-26" value="" style="line;strokeWidth=1;fillColor=none;align=left;verticalAlign=middle;spacingTop=-1;spacingLeft=3;spacingRight=3;rotatable=0;labelPosition=right;points=[];portConstraint=eastwest;strokeColor=inherit;" vertex="1" parent="VLVDaIbxHgHDTLNOF5i8-24">
          <mxGeometry y="26" width="126" height="8" as="geometry" />
        </mxCell>
        <mxCell id="VLVDaIbxHgHDTLNOF5i8-28" value="CommandsShow" style="swimlane;fontStyle=1;align=center;verticalAlign=top;childLayout=stackLayout;horizontal=1;startSize=26;horizontalStack=0;resizeParent=1;resizeParentMax=0;resizeLast=0;collapsible=1;marginBottom=0;whiteSpace=wrap;html=1;" vertex="1" parent="1">
          <mxGeometry x="650" y="600" width="126" height="34" as="geometry" />
        </mxCell>
        <mxCell id="VLVDaIbxHgHDTLNOF5i8-30" value="" style="line;strokeWidth=1;fillColor=none;align=left;verticalAlign=middle;spacingTop=-1;spacingLeft=3;spacingRight=3;rotatable=0;labelPosition=right;points=[];portConstraint=eastwest;strokeColor=inherit;" vertex="1" parent="VLVDaIbxHgHDTLNOF5i8-28">
          <mxGeometry y="26" width="126" height="8" as="geometry" />
        </mxCell>
        <mxCell id="VLVDaIbxHgHDTLNOF5i8-32" value="MessageShow" style="swimlane;fontStyle=1;align=center;verticalAlign=top;childLayout=stackLayout;horizontal=1;startSize=26;horizontalStack=0;resizeParent=1;resizeParentMax=0;resizeLast=0;collapsible=1;marginBottom=0;whiteSpace=wrap;html=1;" vertex="1" parent="1">
          <mxGeometry x="650" y="650" width="126" height="34" as="geometry" />
        </mxCell>
        <mxCell id="VLVDaIbxHgHDTLNOF5i8-34" value="" style="line;strokeWidth=1;fillColor=none;align=left;verticalAlign=middle;spacingTop=-1;spacingLeft=3;spacingRight=3;rotatable=0;labelPosition=right;points=[];portConstraint=eastwest;strokeColor=inherit;" vertex="1" parent="VLVDaIbxHgHDTLNOF5i8-32">
          <mxGeometry y="26" width="126" height="8" as="geometry" />
        </mxCell>
        <mxCell id="VLVDaIbxHgHDTLNOF5i8-37" value="" style="endArrow=block;dashed=1;endFill=0;endSize=12;html=1;rounded=0;entryX=0.25;entryY=1;entryDx=0;entryDy=0;" edge="1" parent="1" target="VLVDaIbxHgHDTLNOF5i8-2">
          <mxGeometry width="160" relative="1" as="geometry">
            <mxPoint x="600" y="680" as="sourcePoint" />
            <mxPoint x="630" y="620" as="targetPoint" />
          </mxGeometry>
        </mxCell>
        <mxCell id="VLVDaIbxHgHDTLNOF5i8-39" value="" style="endArrow=none;dashed=1;html=1;rounded=0;entryX=0;entryY=0.5;entryDx=0;entryDy=0;" edge="1" parent="1">
          <mxGeometry width="50" height="50" relative="1" as="geometry">
            <mxPoint x="600" y="479" as="sourcePoint" />
            <mxPoint x="650" y="478.9999999999998" as="targetPoint" />
          </mxGeometry>
        </mxCell>
        <mxCell id="VLVDaIbxHgHDTLNOF5i8-40" value="" style="endArrow=none;dashed=1;html=1;rounded=0;entryX=-0.007;entryY=0.151;entryDx=0;entryDy=0;entryPerimeter=0;" edge="1" parent="1">
          <mxGeometry width="50" height="50" relative="1" as="geometry">
            <mxPoint x="600.88" y="680.0699999999999" as="sourcePoint" />
            <mxPoint x="649.9979999999999" y="679.9960000000001" as="targetPoint" />
          </mxGeometry>
        </mxCell>
        <mxCell id="VLVDaIbxHgHDTLNOF5i8-41" value="" style="endArrow=none;dashed=1;html=1;rounded=0;entryX=-0.007;entryY=0.003;entryDx=0;entryDy=0;entryPerimeter=0;" edge="1" parent="1">
          <mxGeometry width="50" height="50" relative="1" as="geometry">
            <mxPoint x="600.88" y="630" as="sourcePoint" />
            <mxPoint x="649.9979999999999" y="630.078" as="targetPoint" />
          </mxGeometry>
        </mxCell>
        <mxCell id="VLVDaIbxHgHDTLNOF5i8-42" value="" style="endArrow=none;dashed=1;html=1;rounded=0;entryX=-0.015;entryY=-0.008;entryDx=0;entryDy=0;entryPerimeter=0;" edge="1" parent="1">
          <mxGeometry width="50" height="50" relative="1" as="geometry">
            <mxPoint x="601.89" y="580.21" as="sourcePoint" />
            <mxPoint x="649.9999999999999" y="580.002" as="targetPoint" />
          </mxGeometry>
        </mxCell>
        <mxCell id="VLVDaIbxHgHDTLNOF5i8-43" value="" style="endArrow=none;dashed=1;html=1;rounded=0;entryX=-0.004;entryY=0.033;entryDx=0;entryDy=0;entryPerimeter=0;" edge="1" parent="1">
          <mxGeometry width="50" height="50" relative="1" as="geometry">
            <mxPoint x="600.5" y="530.14" as="sourcePoint" />
            <mxPoint x="649.9959999999999" y="529.9979999999999" as="targetPoint" />
          </mxGeometry>
        </mxCell>
        <mxCell id="VLVDaIbxHgHDTLNOF5i8-44" value="User" style="html=1;whiteSpace=wrap;" vertex="1" parent="1">
          <mxGeometry x="334" y="80" width="110" height="50" as="geometry" />
        </mxCell>
        <mxCell id="VLVDaIbxHgHDTLNOF5i8-47" value="callback" style="html=1;verticalAlign=bottom;endArrow=block;curved=0;rounded=0;entryX=0.329;entryY=0;entryDx=0;entryDy=0;exitX=0.237;exitY=1.007;exitDx=0;exitDy=0;entryPerimeter=0;exitPerimeter=0;" edge="1" target="dh5dRvbEl5mvJbLDPn4G-23" parent="1" source="VLVDaIbxHgHDTLNOF5i8-44">
          <mxGeometry x="-0.1429" relative="1" as="geometry">
            <mxPoint x="380" y="180" as="sourcePoint" />
            <mxPoint x="310" y="180" as="targetPoint" />
            <mxPoint as="offset" />
          </mxGeometry>
        </mxCell>
        <mxCell id="VLVDaIbxHgHDTLNOF5i8-48" value="return" style="html=1;verticalAlign=bottom;endArrow=open;dashed=1;endSize=8;curved=0;rounded=0;entryX=0.75;entryY=1;entryDx=0;entryDy=0;exitX=0.666;exitY=-0.002;exitDx=0;exitDy=0;exitPerimeter=0;" edge="1" source="dh5dRvbEl5mvJbLDPn4G-23" parent="1" target="VLVDaIbxHgHDTLNOF5i8-44">
          <mxGeometry relative="1" as="geometry">
            <mxPoint x="500" y="221.97999999999996" as="targetPoint" />
            <mxPoint x="430" y="200" as="sourcePoint" />
          </mxGeometry>
        </mxCell>
      </root>
    </mxGraphModel>
  </diagram>
</mxfile>
